<svg width="11" height="21" viewBox="0 0 11 21" fill="none" xmlns="http://www.w3.org/2000/svg">
<path d="M0.381419 10.7978H2.57374V19.8232C2.57374 20.0014 2.71813 20.1458 2.89632 20.1458H6.61348C6.79168 20.1458 6.93606 20.0014 6.93606 19.8232V10.8403H9.45632C9.62019 10.8403 9.75806 10.7173 9.77677 10.5545L10.1595 7.23182C10.1701 7.1404 10.1411 7.04885 10.0799 6.98027C10.0187 6.91162 9.9311 6.87233 9.83916 6.87233H6.93619V4.78949C6.93619 4.16162 7.27426 3.84324 7.9411 3.84324C8.03613 3.84324 9.83916 3.84324 9.83916 3.84324C10.0174 3.84324 10.1617 3.69878 10.1617 3.52066V0.47072C10.1617 0.292526 10.0174 0.148139 9.83916 0.148139H7.22335C7.2049 0.147236 7.16393 0.145752 7.10355 0.145752C6.64968 0.145752 5.07206 0.234849 3.82587 1.3813C2.4451 2.65175 2.63703 4.17291 2.6829 4.43666V6.87227H0.381419C0.203225 6.87227 0.0588379 7.01665 0.0588379 7.19485V10.4751C0.0588379 10.6533 0.203225 10.7978 0.381419 10.7978Z" fill="#3E70F9"/>
</svg>
