<svg width="23" height="23" viewBox="0 0 23 23" fill="none" xmlns="http://www.w3.org/2000/svg">
<path fill-rule="evenodd" clip-rule="evenodd" d="M21.655 3.99587C21.93 4.72921 22.1133 5.46254 22.205 6.65421C22.2966 7.75421 22.2966 8.12087 22.2966 11.1459C22.2966 14.1709 22.2966 14.5375 22.205 15.6375C22.1133 16.8292 21.93 17.5625 21.655 18.2959C21.38 19.0292 21.0133 19.5792 20.3716 20.2209C19.8216 20.8625 19.18 21.2292 18.4466 21.5042C17.7133 21.7792 16.98 21.9625 15.7883 22.0542C14.6883 22.1459 14.3216 22.1459 11.2966 22.1459H6.7133C5.52163 22.0542 4.7883 21.8709 4.05496 21.5959C3.32163 21.3209 2.77163 20.9542 2.12996 20.3125C1.4883 19.6709 1.12163 19.0292 0.938298 18.2959C0.663298 17.5625 0.479964 16.8292 0.388298 15.6375C0.296631 14.5375 0.296631 14.1709 0.296631 11.1459C0.296631 8.12087 0.296631 7.75421 0.388298 6.65421C0.388298 5.46254 0.571631 4.63754 0.846631 3.90421C1.12163 3.26254 1.4883 2.62087 2.12996 1.97921C2.77163 1.33754 3.4133 0.970874 4.05496 0.695874C4.7883 0.420874 5.6133 0.237541 6.80496 0.237541C7.90496 0.145874 8.27163 0.145874 11.2966 0.145874H15.88C17.0716 0.237541 17.805 0.420874 18.5383 0.695874C19.2716 0.970874 19.8216 1.33754 20.4633 1.97921C21.105 2.62087 21.4716 3.26254 21.655 3.99587ZM15.88 5.27921C15.88 6.01254 16.43 6.56254 17.1633 6.56254C17.8966 6.56254 18.4466 6.01254 18.4466 5.27921C18.4466 4.54587 17.8966 3.99587 17.1633 3.99587C16.43 3.99587 15.88 4.54587 15.88 5.27921ZM5.6133 11.1459C5.6133 14.2625 8.17996 16.8292 11.2966 16.8292C14.4133 16.8292 16.98 14.2625 16.98 11.1459C16.98 8.02921 14.4133 5.46254 11.2966 5.46254C8.17996 5.46254 5.6133 8.02921 5.6133 11.1459ZM14.9633 11.1462C14.9633 13.1713 13.3217 14.8129 11.2966 14.8129C9.27159 14.8129 7.62996 13.1713 7.62996 11.1462C7.62996 9.12119 9.27159 7.47957 11.2966 7.47957C13.3217 7.47957 14.9633 9.12119 14.9633 11.1462Z" fill="#3E70F9"/>
</svg>
