<svg width="13" height="19" viewBox="0 0 13 19" fill="none" xmlns="http://www.w3.org/2000/svg">
<path d="M8.70947 8.66309C9.26751 8.10505 9.54653 7.43169 9.54653 6.643C9.54653 5.85431 9.26751 5.18094 8.70947 4.62291C8.15144 4.06487 7.47807 3.78585 6.68938 3.78585C5.90069 3.78585 5.22733 4.06487 4.66929 4.62291C4.11126 5.18094 3.83224 5.85431 3.83224 6.643C3.83224 7.43169 4.11126 8.10505 4.66929 8.66309C5.22733 9.22112 5.90069 9.50014 6.68938 9.50014C7.47807 9.50014 8.15144 9.22112 8.70947 8.66309ZM12.4037 6.643C12.4037 7.45401 12.2809 8.11993 12.0354 8.64077L7.97287 17.2792C7.85382 17.5247 7.67525 17.7181 7.43715 17.8595C7.2065 18.0009 6.95724 18.0716 6.68938 18.0716C6.42153 18.0716 6.16855 18.0009 5.93046 17.8595C5.6998 17.7181 5.52867 17.5247 5.41706 17.2792L1.3434 8.64077C1.09787 8.11993 0.975098 7.45401 0.975098 6.643C0.975098 5.06562 1.53313 3.71889 2.6492 2.60282C3.76528 1.48675 5.112 0.928711 6.68938 0.928711C8.26676 0.928711 9.61349 1.48675 10.7296 2.60282C11.8456 3.71889 12.4037 5.06562 12.4037 6.643Z" fill="#525661"/>
</svg>
