<svg width="21" height="18" viewBox="0 0 21 18" fill="none" xmlns="http://www.w3.org/2000/svg">
<path d="M20.2503 2.84823C19.9361 2.98759 19.6131 3.1052 19.2831 3.20068C19.6738 2.75875 19.9718 2.23875 20.1536 1.66972C20.1944 1.54217 20.1521 1.40256 20.0473 1.31914C19.9426 1.23566 19.7971 1.22566 19.6818 1.29398C18.9809 1.70972 18.2246 2.00849 17.4316 2.1832C16.6329 1.40269 15.548 0.958496 14.4264 0.958496C12.059 0.958496 10.133 2.88449 10.133 5.25184C10.133 5.43829 10.1448 5.62371 10.1681 5.80654C7.23038 5.54861 4.49923 4.10468 2.62375 1.80411C2.55691 1.72211 2.45394 1.67791 2.34852 1.68636C2.24304 1.69462 2.14827 1.75411 2.09498 1.84553C1.71459 2.49823 1.5135 3.24475 1.5135 4.00429C1.5135 5.03881 1.88285 6.02035 2.5353 6.78732C2.33691 6.71861 2.1444 6.63274 1.96066 6.53074C1.86201 6.47583 1.74162 6.47667 1.64362 6.53287C1.54556 6.58906 1.48408 6.69241 1.4815 6.80538C1.48104 6.82441 1.48104 6.84344 1.48104 6.86273C1.48104 8.40692 2.31214 9.79718 3.58278 10.5549C3.47362 10.544 3.36452 10.5282 3.25613 10.5075C3.14439 10.4861 3.02949 10.5253 2.95414 10.6105C2.87865 10.6957 2.85368 10.8144 2.88846 10.9228C3.35878 12.3912 4.56968 13.4712 6.03355 13.8005C4.81942 14.561 3.43097 14.9593 1.97343 14.9593C1.6693 14.9593 1.36343 14.9414 1.06408 14.906C0.915368 14.8883 0.773175 14.9761 0.72253 15.1175C0.671885 15.259 0.725562 15.4168 0.852078 15.4979C2.72452 16.6984 4.88961 17.333 7.11315 17.333C11.4844 17.333 14.2189 15.2717 15.7431 13.5425C17.6437 11.3863 18.7338 8.53234 18.7338 5.71242C18.7338 5.59461 18.732 5.47564 18.7283 5.35706C19.4782 4.7921 20.1238 4.10836 20.6492 3.32249C20.729 3.20313 20.7203 3.04539 20.6279 2.93552C20.5356 2.82559 20.3817 2.79004 20.2503 2.84823Z" fill="#3E70F9"/>
</svg>
