<svg width="25" height="18" viewBox="0 0 25 18" fill="none" xmlns="http://www.w3.org/2000/svg">
<path d="M24.3969 3.37319C24.1184 2.34508 23.3099 1.53652 22.2818 1.25807C20.4023 0.744018 12.8896 0.744019 12.8896 0.744019C12.8896 0.744019 5.37691 0.744019 3.4974 1.23665C2.49071 1.5151 1.66073 2.34508 1.38228 3.37319C0.889648 5.2527 0.889648 9.14558 0.889648 9.14558C0.889648 9.14558 0.889648 13.0599 1.38228 14.918C1.66073 15.9461 2.46929 16.7546 3.4974 17.0331C5.39297 17.5471 12.8896 17.5471 12.8896 17.5471C12.8896 17.5471 20.4023 17.5471 22.2818 17.0545C23.3099 16.7761 24.1184 15.9675 24.3969 14.9394C24.8895 13.0599 24.8895 9.167 24.8895 9.167C24.8895 9.167 24.9109 5.2527 24.3969 3.37319ZM10.496 12.744V5.54721L16.745 9.14558L10.496 12.744Z" fill="#3E70F9"/>
</svg>
